<svg xmlns="http://www.w3.org/2000/svg"
  aria-hidden="true"
  style="position: absolute; width: 0; height: 0"
  overflow="hidden"
>
  <defs>
    <!-- LogoTraveltrucks -->
    

    <symbol id="heart" viewBox="0 0 37 32" fill="none">
        <path d="M18.286 11.968l-2.043-4.089c-0.507-1.013-1.387-2.469-2.633-3.646-1.225-1.159-2.693-1.947-4.466-1.947-3.831 0-6.857 3.031-6.857 6.674 0 2.768 1.266 4.722 4.27 7.703 0.77 0.763 1.648 1.589 2.619 2.498 2.533 2.377 5.682 5.335 9.111 9.289 3.429-3.954 6.578-6.912 9.111-9.289 0.971-0.91 1.851-1.737 2.619-2.498 3.003-2.981 4.27-4.935 4.27-7.703 0-3.643-3.026-6.674-6.857-6.674-1.776 0-3.241 0.789-4.466 1.947-1.246 1.177-2.126 2.633-2.633 3.646l-2.043 4.089zM19.182 30.921c-0.11 0.13-0.247 0.235-0.402 0.307s-0.323 0.109-0.494 0.109-0.339-0.037-0.494-0.109c-0.155-0.072-0.292-0.177-0.402-0.307-3.659-4.347-6.971-7.456-9.698-10.014-4.72-4.432-7.691-7.218-7.691-11.947 0-4.949 4.091-8.96 9.143-8.96 3.657 0 6.215 2.4 7.781 4.59 0.594 0.834 1.047 1.637 1.362 2.267 0.396-0.789 0.851-1.547 1.362-2.267 1.566-2.192 4.123-4.59 7.781-4.59 5.051 0 9.143 4.011 9.143 8.96 0 4.729-2.971 7.515-7.691 11.947-2.727 2.56-6.039 5.671-9.698 10.014z" fill="#101828"></path>
    </symbol>

    <symbol id="heart_filled" viewBox="0 0 37 32" fill="#F04438">
        <path d="M18.286 11.968l-2.043-4.089c-0.507-1.013-1.387-2.469-2.633-3.646-1.225-1.159-2.693-1.947-4.466-1.947-3.831 0-6.857 3.031-6.857 6.674 0 2.768 1.266 4.722 4.27 7.703 0.77 0.763 1.648 1.589 2.619 2.498 2.533 2.377 5.682 5.335 9.111 9.289 3.429-3.954 6.578-6.912 9.111-9.289 0.971-0.91 1.851-1.737 2.619-2.498 3.003-2.981 4.27-4.935 4.27-7.703 0-3.643-3.026-6.674-6.857-6.674-1.776 0-3.241 0.789-4.466 1.947-1.246 1.177-2.126 2.633-2.633 3.646l-2.043 4.089zM19.182 30.921c-0.11 0.13-0.247 0.235-0.402 0.307s-0.323 0.109-0.494 0.109-0.339-0.037-0.494-0.109c-0.155-0.072-0.292-0.177-0.402-0.307-3.659-4.347-6.971-7.456-9.698-10.014-4.72-4.432-7.691-7.218-7.691-11.947 0-4.949 4.091-8.96 9.143-8.96 3.657 0 6.215 2.4 7.781 4.59 0.594 0.834 1.047 1.637 1.362 2.267 0.396-0.789 0.851-1.547 1.362-2.267 1.566-2.192 4.123-4.59 7.781-4.59 5.051 0 9.143 4.011 9.143 8.96 0 4.729-2.971 7.515-7.691 11.947-2.727 2.56-6.039 5.671-9.698 10.014z"></path>
    </symbol>

    <symbol id="star_disable" viewBox="0 0 32 32">
    <path d="M15.022 1.622c0.415-0.786 1.541-0.786 1.956 0l4.176 7.916c0.16 0.303 0.452 0.515 0.79 0.574l8.819 1.526c0.876 0.152 1.224 1.223 0.605 1.861l-6.238 6.418c-0.239 0.246-0.35 0.589-0.301 0.928l1.274 8.859c0.127 0.88-0.785 1.542-1.583 1.15l-8.032-3.949c-0.308-0.151-0.668-0.151-0.976 0l-8.032 3.949c-0.798 0.392-1.709-0.27-1.583-1.15l1.274-8.859c0.049-0.339-0.063-0.682-0.302-0.928l-6.238-6.418c-0.62-0.638-0.272-1.709 0.605-1.861l8.819-1.526c0.338-0.058 0.63-0.27 0.79-0.574l4.176-7.916z"></path>
    </symbol>

    <symbol id="map" viewBox="0 0 32 32">
        <path d="M31.634 0.226c0.115 0.094 0.207 0.212 0.27 0.346s0.096 0.28 0.096 0.428v28c-0 0.231-0.080 0.455-0.227 0.634s-0.351 0.301-0.577 0.346l-10 2c-0.129 0.026-0.263 0.026-0.392 0l-9.804-1.96-9.804 1.96c-0.145 0.029-0.295 0.025-0.438-0.010s-0.277-0.103-0.392-0.197c-0.114-0.094-0.207-0.212-0.27-0.345s-0.096-0.28-0.096-0.428v-28c0-0.231 0.080-0.455 0.227-0.634s0.351-0.301 0.577-0.346l10-2c0.129-0.026 0.263-0.026 0.392 0l9.804 1.96 9.804-1.96c0.145-0.029 0.295-0.026 0.438 0.010s0.277 0.103 0.392 0.196zM20 3.82l-8-1.6v25.96l8 1.6v-25.96zM22 29.78l8-1.6v-25.96l-8 1.6v25.96zM10 28.18v-25.96l-8 1.6v25.96l8-1.6z"/>
    </symbol>

    <symbol id="tv" viewBox="0 0 32 32" fill="none">
        <path d="M0 8C0 8 0 4 4 4H28C28 4 32 4 32 8V20C32 20 32 24 28 24H20C20 25.3333 20.1667 26.3333 20.5 27H22C22.2652 27 22.5196 27.1054 22.7071 27.2929C22.8946 27.4804 23 27.7348 23 28C23 28.2652 22.8946 28.5196 22.7071 28.7071C22.5196 28.8946 22.2652 29 22 29H10C9.73478 29 9.48043 28.8946 9.29289 28.7071C9.10536 28.5196 9 28.2652 9 28C9 27.7348 9.10536 27.4804 9.29289 27.2929C9.48043 27.1054 9.73478 27 10 27H11.5C11.8333 26.3333 12 25.3333 12 24H4C4 24 0 24 0 20V8ZM2.796 6.29C2.57644 6.44309 2.4012 6.65145 2.288 6.894C2.11952 7.24697 2.02168 7.62948 2 8.02V20C2 20.65 2.156 21.004 2.29 21.204C2.43 21.412 2.63133 21.5813 2.894 21.712C3.23168 21.8736 3.59663 21.9706 3.97 21.998L4.02 22H28C28.65 22 29.004 21.844 29.204 21.71C29.4236 21.5569 29.5988 21.3486 29.712 21.106C29.8736 20.7683 29.9706 20.4034 29.998 20.03L30 19.98V8C30 7.35 29.844 6.996 29.71 6.796C29.5569 6.57644 29.3486 6.4012 29.106 6.288C28.753 6.11952 28.3705 6.02168 27.98 6H4C3.35 6 2.996 6.156 2.796 6.29Z" fill="#101828" />
    </symbol>

    <symbol id="ac"  viewBox="0 0 32 32" fill="none">
      <g clip-path="url(#clip0_12138_437)">
        <path d="M25 4C23.6739 4 22.4021 4.52679 21.4645 5.46447C20.5268 6.40215 20 7.67392 20 9C20 9.26522 19.8946 9.51957 19.7071 9.70711C19.5196 9.89465 19.2652 10 19 10C18.7348 10 18.4804 9.89465 18.2929 9.70711C18.1054 9.51957 18 9.26522 18 9C18 7.61553 18.4105 6.26216 19.1797 5.11101C19.9489 3.95987 21.0421 3.06266 22.3212 2.53285C23.6003 2.00303 25.0078 1.86441 26.3656 2.13451C27.7235 2.4046 28.9708 3.07129 29.9497 4.05026C30.9287 5.02922 31.5954 6.2765 31.8655 7.63437C32.1356 8.99224 31.997 10.3997 31.4672 11.6788C30.9373 12.9579 30.0401 14.0511 28.889 14.8203C27.7378 15.5895 26.3845 16 25 16H1C0.734784 16 0.48043 15.8946 0.292893 15.7071C0.105357 15.5196 0 15.2652 0 15C0 14.7348 0.105357 14.4804 0.292893 14.2929C0.48043 14.1054 0.734784 14 1 14H25C26.3261 14 27.5979 13.4732 28.5355 12.5355C29.4732 11.5979 30 10.3261 30 9C30 7.67392 29.4732 6.40215 28.5355 5.46447C27.5979 4.52679 26.3261 4 25 4ZM11 6C10.4696 6 9.96086 6.21072 9.58579 6.58579C9.21071 6.96086 9 7.46957 9 8C9 8.26522 8.89464 8.51957 8.70711 8.70711C8.51957 8.89465 8.26522 9 8 9C7.73478 9 7.48043 8.89465 7.29289 8.70711C7.10536 8.51957 7 8.26522 7 8C7 7.20888 7.2346 6.43552 7.67412 5.77772C8.11365 5.11993 8.73836 4.60724 9.46927 4.30449C10.2002 4.00173 11.0044 3.92252 11.7804 4.07686C12.5563 4.2312 13.269 4.61217 13.8284 5.17158C14.3878 5.73099 14.7688 6.44372 14.9231 7.21964C15.0775 7.99557 14.9983 8.79983 14.6955 9.53074C14.3928 10.2616 13.8801 10.8864 13.2223 11.3259C12.5645 11.7654 11.7911 12 11 12H1C0.734784 12 0.48043 11.8946 0.292893 11.7071C0.105357 11.5196 0 11.2652 0 11C0 10.7348 0.105357 10.4804 0.292893 10.2929C0.48043 10.1054 0.734784 10 1 10H11C11.5304 10 12.0391 9.78929 12.4142 9.41422C12.7893 9.03914 13 8.53044 13 8C13 7.46957 12.7893 6.96086 12.4142 6.58579C12.0391 6.21072 11.5304 6 11 6ZM0 19C0 18.7348 0.105357 18.4804 0.292893 18.2929C0.48043 18.1054 0.734784 18 1 18H21.084C22.2707 18 23.4307 18.3519 24.4174 19.0112C25.4041 19.6705 26.1732 20.6075 26.6273 21.7039C27.0814 22.8003 27.2002 24.0067 26.9687 25.1705C26.7372 26.3344 26.1658 27.4035 25.3266 28.2426C24.4875 29.0818 23.4184 29.6532 22.2545 29.8847C21.0907 30.1162 19.8843 29.9974 18.7879 29.5433C17.6915 29.0892 16.7545 28.3201 16.0952 27.3334C15.4359 26.3467 15.084 25.1867 15.084 24C15.084 23.7348 15.1894 23.4804 15.3769 23.2929C15.5644 23.1054 15.8188 23 16.084 23C16.3492 23 16.6036 23.1054 16.7911 23.2929C16.9786 23.4804 17.084 23.7348 17.084 24C17.084 24.7911 17.3186 25.5645 17.7581 26.2223C18.1976 26.8801 18.8224 27.3928 19.5533 27.6955C20.2842 27.9983 21.0884 28.0775 21.8644 27.9231C22.6403 27.7688 23.353 27.3878 23.9124 26.8284C24.4718 26.269 24.8528 25.5563 25.0071 24.7804C25.1615 24.0044 25.0823 23.2002 24.7795 22.4693C24.4768 21.7384 23.9641 21.1137 23.3063 20.6741C22.6485 20.2346 21.8751 20 21.084 20H1C0.734784 20 0.48043 19.8946 0.292893 19.7071C0.105357 19.5196 0 19.2652 0 19Z" fill="#101828" />
      </g>
      <defs>
        <clipPath id="clip0_12138_437">
          <rect width="32" height="32" fill="white" />
        </clipPath>
      </defs>
    </symbol>

    <symbol id="diagram" viewBox="0 0 32 32" fill="none">
    <path fill-rule="evenodd" clip-rule="evenodd" d="M12 7C12 6.20435 12.3161 5.44129 12.8787 4.87868C13.4413 4.31607 14.2044 4 15 4H17C17.7956 4 18.5587 4.31607 19.1213 4.87868C19.6839 5.44129 20 6.20435 20 7V9C20 9.79565 19.6839 10.5587 19.1213 11.1213C18.5587 11.6839 17.7956 12 17 12V14H28C28.2652 14 28.5196 14.1054 28.7071 14.2929C28.8946 14.4804 29 14.7348 29 15V17C29 17.2652 28.8946 17.5196 28.7071 17.7071C28.5196 17.8946 28.2652 18 28 18C27.7348 18 27.4804 17.8946 27.2929 17.7071C27.1054 17.5196 27 17.2652 27 17V16H17V17C17 17.2652 16.8946 17.5196 16.7071 17.7071C16.5196 17.8946 16.2652 18 16 18C15.7348 18 15.4804 17.8946 15.2929 17.7071C15.1054 17.5196 15 17.2652 15 17V16H5V17C5 17.2652 4.89464 17.5196 4.70711 17.7071C4.51957 17.8946 4.26522 18 4 18C3.73478 18 3.48043 17.8946 3.29289 17.7071C3.10536 17.5196 3 17.2652 3 17V15C3 14.7348 3.10536 14.4804 3.29289 14.2929C3.48043 14.1054 3.73478 14 4 14H15V12C14.2044 12 13.4413 11.6839 12.8787 11.1213C12.3161 10.5587 12 9.79565 12 9V7ZM17 10C17.2652 10 17.5196 9.89464 17.7071 9.70711C17.8946 9.51957 18 9.26522 18 9V7C18 6.73478 17.8946 6.48043 17.7071 6.29289C17.5196 6.10536 17.2652 6 17 6H15C14.7348 6 14.4804 6.10536 14.2929 6.29289C14.1054 6.48043 14 6.73478 14 7V9C14 9.26522 14.1054 9.51957 14.2929 9.70711C14.4804 9.89464 14.7348 10 15 10H17ZM0 23C0 22.2044 0.31607 21.4413 0.87868 20.8787C1.44129 20.3161 2.20435 20 3 20H5C5.79565 20 6.55871 20.3161 7.12132 20.8787C7.68393 21.4413 8 22.2044 8 23V25C8 25.7956 7.68393 26.5587 7.12132 27.1213C6.55871 27.6839 5.79565 28 5 28H3C2.20435 28 1.44129 27.6839 0.87868 27.1213C0.31607 26.5587 0 25.7956 0 25L0 23ZM3 22C2.73478 22 2.48043 22.1054 2.29289 22.2929C2.10536 22.4804 2 22.7348 2 23V25C2 25.2652 2.10536 25.5196 2.29289 25.7071C2.48043 25.8946 2.73478 26 3 26H5C5.26522 26 5.51957 25.8946 5.70711 25.7071C5.89464 25.5196 6 25.2652 6 25V23C6 22.7348 5.89464 22.4804 5.70711 22.2929C5.51957 22.1054 5.26522 22 5 22H3ZM12 23C12 22.2044 12.3161 21.4413 12.8787 20.8787C13.4413 20.3161 14.2044 20 15 20H17C17.7956 20 18.5587 20.3161 19.1213 20.8787C19.6839 21.4413 20 22.2044 20 23V25C20 25.7956 19.6839 26.5587 19.1213 27.1213C18.5587 27.6839 17.7956 28 17 28H15C14.2044 28 13.4413 27.6839 12.8787 27.1213C12.3161 26.5587 12 25.7956 12 25V23ZM15 22C14.7348 22 14.4804 22.1054 14.2929 22.2929C14.1054 22.4804 14 22.7348 14 23V25C14 25.2652 14.1054 25.5196 14.2929 25.7071C14.4804 25.8946 14.7348 26 15 26H17C17.2652 26 17.5196 25.8946 17.7071 25.7071C17.8946 25.5196 18 25.2652 18 25V23C18 22.7348 17.8946 22.4804 17.7071 22.2929C17.5196 22.1054 17.2652 22 17 22H15ZM24 23C24 22.2044 24.3161 21.4413 24.8787 20.8787C25.4413 20.3161 26.2044 20 27 20H29C29.7956 20 30.5587 20.3161 31.1213 20.8787C31.6839 21.4413 32 22.2044 32 23V25C32 25.7956 31.6839 26.5587 31.1213 27.1213C30.5587 27.6839 29.7956 28 29 28H27C26.2044 28 25.4413 27.6839 24.8787 27.1213C24.3161 26.5587 24 25.7956 24 25V23ZM27 22C26.7348 22 26.4804 22.1054 26.2929 22.2929C26.1054 22.4804 26 22.7348 26 23V25C26 25.2652 26.1054 25.5196 26.2929 25.7071C26.4804 25.8946 26.7348 26 27 26H29C29.2652 26 29.5196 25.8946 29.7071 25.7071C29.8946 25.5196 30 25.2652 30 25V23C30 22.7348 29.8946 22.4804 29.7071 22.2929C29.5196 22.1054 29.2652 22 29 22H27Z" fill="#101828" />
    </symbol>

    <symbol id="cup" viewBox="0 0 32 32" fill="none">
      <g clip-path="url(#clip0_12138_439)">
        <path fill-rule="evenodd" clip-rule="evenodd" d="M1 12C0.85037 12.0001 0.702657 12.0337 0.567753 12.0984C0.432849 12.1632 0.314192 12.2574 0.22053 12.3741C0.126868 12.4907 0.0605872 12.627 0.0265741 12.7727C-0.00743894 12.9184 -0.00831744 13.0699 0.0240034 13.216L3.328 28.084C3.57463 29.1945 4.19255 30.1877 5.07976 30.8997C5.96698 31.6116 7.07045 31.9998 8.208 32H19.792C20.9296 31.9998 22.033 31.6116 22.9202 30.8997C23.8075 30.1877 24.4254 29.1945 24.672 28.084L24.934 26.904C26.4638 27.1901 28.045 26.8706 29.3437 26.0129C30.6424 25.1552 31.557 23.8264 31.8944 22.307C32.2318 20.7876 31.9656 19.1966 31.1521 17.8698C30.3385 16.543 29.0412 15.5843 27.534 15.196L27.976 13.216C28.0083 13.0699 28.0074 12.9184 27.9734 12.7727C27.9394 12.627 27.8731 12.4907 27.7795 12.3741C27.6858 12.2574 27.5672 12.1632 27.4323 12.0984C27.2974 12.0337 27.1496 12.0001 27 12H1ZM26 25C25.7883 25.0001 25.577 24.9834 25.368 24.95L27.102 17.154C28.027 17.4219 28.8244 18.0144 29.3478 18.8227C29.8713 19.631 30.0857 20.601 29.9518 21.5546C29.8178 22.5083 29.3445 23.3817 28.6186 24.0145C27.8927 24.6474 26.963 24.9973 26 25ZM5.28 27.65L2.246 14H25.754L22.72 27.65C22.5721 28.3164 22.2014 28.9124 21.6691 29.3396C21.1367 29.7669 20.4746 29.9998 19.792 30H8.208C7.52542 29.9998 6.86329 29.7669 6.33095 29.3396C5.79862 28.9124 5.4279 28.3164 5.28 27.65Z" fill="#101828" />
        <path d="M8.8 1.60006L8.794 1.60806L8.766 1.64606C8.62048 1.8463 8.48433 2.05319 8.358 2.26606C8.25068 2.4367 8.15641 2.61521 8.076 2.80006C8.024 2.92006 8.008 2.98406 8.002 3.00606V3.01406C8.02506 3.19086 8.08724 3.3603 8.184 3.51006C8.334 3.77606 8.54 4.05406 8.8 4.40006L8.82 4.42406C9.056 4.74006 9.34 5.11806 9.56 5.51006C9.784 5.91006 10 6.42006 10 7.00006C10 7.37606 9.87 7.73606 9.762 7.98806C9.6464 8.25621 9.51137 8.51557 9.358 8.76406C9.2011 9.02632 9.03225 9.28126 8.852 9.52806L8.816 9.57806L8.806 9.59406L8.802 9.59806C8.64314 9.8105 8.40639 9.95113 8.14384 9.98901C7.88129 10.0269 7.61444 9.95892 7.402 9.80006C7.18956 9.64119 7.04893 9.40445 7.01105 9.14189C6.97317 8.87934 7.04114 8.6125 7.2 8.40006L7.206 8.39206L7.234 8.35406C7.37952 8.15382 7.51567 7.94693 7.642 7.73406C7.74932 7.56342 7.84359 7.38491 7.924 7.20006C7.976 7.08006 7.992 7.01606 7.998 6.99406C7.97671 6.81465 7.91517 6.64237 7.818 6.49006C7.63235 6.17977 7.42588 5.88242 7.2 5.60006L7.18 5.57606C6.90979 5.23068 6.66259 4.86789 6.44 4.49006C6.16759 4.03952 6.01604 3.52631 6 3.00006C6 2.62406 6.13 2.26406 6.238 2.01206C6.356 1.73606 6.506 1.46406 6.642 1.23606C6.80088 0.975043 6.96967 0.720191 7.148 0.47206L7.198 0.40206C7.35686 0.189621 7.59361 0.0489924 7.85616 0.0111101C8.11872 -0.0267722 8.38556 0.0411949 8.598 0.20006C8.81044 0.358924 8.95107 0.595673 8.98895 0.858224C9.02683 1.12077 8.95886 1.38762 8.8 1.60006ZM14.8 1.60006L14.794 1.60806L14.766 1.64606C14.6205 1.8463 14.4843 2.05319 14.358 2.26606C14.2507 2.4367 14.1564 2.61521 14.076 2.80006C14.024 2.92006 14.008 2.98406 14.002 3.00606V3.01406C14.0251 3.19086 14.0872 3.3603 14.184 3.51006C14.334 3.77606 14.54 4.05406 14.8 4.40006L14.82 4.42406C15.056 4.74006 15.34 5.11806 15.56 5.51006C15.784 5.91006 16 6.42006 16 7.00006C16 7.37606 15.87 7.73606 15.762 7.98806C15.6464 8.25621 15.5114 8.51557 15.358 8.76406C15.2011 9.02632 15.0323 9.28126 14.852 9.52806L14.816 9.57806L14.806 9.59406L14.802 9.59806C14.6431 9.8105 14.4064 9.95113 14.1438 9.98901C13.8813 10.0269 13.6144 9.95892 13.402 9.80006C13.1896 9.64119 13.0489 9.40445 13.0111 9.14189C12.9732 8.87934 13.0411 8.6125 13.2 8.40006L13.206 8.39206L13.234 8.35406C13.3795 8.15382 13.5157 7.94693 13.642 7.73406C13.7493 7.56342 13.8436 7.38491 13.924 7.20006C13.976 7.08006 13.992 7.01606 13.998 6.99406C13.9767 6.81465 13.9152 6.64237 13.818 6.49006C13.6323 6.17977 13.4259 5.88242 13.2 5.60006L13.18 5.57606C12.9098 5.23068 12.6626 4.86789 12.44 4.49006C12.1676 4.03952 12.016 3.52631 12 3.00006C12 2.62406 12.13 2.26406 12.238 2.01206C12.356 1.73606 12.506 1.46406 12.642 1.23606C12.8009 0.975043 12.9697 0.720191 13.148 0.47206L13.198 0.40206C13.3569 0.189621 13.5936 0.0489924 13.8562 0.0111101C14.1187 -0.0267723 14.3856 0.0411949 14.598 0.20006C14.8104 0.358924 14.9511 0.595673 14.9889 0.858224C15.0268 1.12077 14.9589 1.38762 14.8 1.60006ZM20.8 1.60006L20.794 1.60806L20.766 1.64606C20.6205 1.8463 20.4843 2.05319 20.358 2.26606C20.2507 2.4367 20.1564 2.61521 20.076 2.80006C20.024 2.92006 20.008 2.98406 20.002 3.00606V3.01406C20.0251 3.19086 20.0872 3.3603 20.184 3.51006C20.334 3.77606 20.54 4.05406 20.8 4.40006L20.82 4.42406C21.056 4.74006 21.34 5.11806 21.56 5.51006C21.784 5.91006 22 6.42006 22 7.00006C22 7.37606 21.87 7.73606 21.762 7.98806C21.6464 8.25621 21.5114 8.51557 21.358 8.76406C21.2017 9.02628 21.0336 9.28122 20.854 9.52806L20.816 9.57806L20.806 9.59406L20.802 9.59806C20.6431 9.8105 20.4064 9.95113 20.1438 9.98901C19.8813 10.0269 19.6144 9.95892 19.402 9.80006C19.1896 9.64119 19.0489 9.40445 19.0111 9.14189C18.9732 8.87934 19.0411 8.6125 19.2 8.40006L19.206 8.39206L19.234 8.35406C19.3795 8.15382 19.5157 7.94693 19.642 7.73406C19.7493 7.56342 19.8436 7.38491 19.924 7.20006C19.976 7.08006 19.992 7.01606 19.998 6.99406C19.9767 6.81465 19.9152 6.64237 19.818 6.49006C19.6324 6.17977 19.4259 5.88242 19.2 5.60006L19.18 5.57606C18.9098 5.23068 18.6626 4.86789 18.44 4.49006C18.1676 4.03952 18.016 3.52631 18 3.00006C18 2.62406 18.13 2.26406 18.238 2.01206C18.356 1.73606 18.506 1.46406 18.642 1.23606C18.8009 0.975043 18.9697 0.720191 19.148 0.47206L19.198 0.40206C19.3569 0.189621 19.5936 0.0489924 19.8562 0.0111101C20.1187 -0.0267723 20.3856 0.0411949 20.598 0.20006C20.8104 0.358924 20.9511 0.595673 20.9889 0.858224C21.0268 1.12077 20.9589 1.38762 20.8 1.60006Z" fill="#101828" />
      </g>
      <defs>
        <clipPath id="clip0_12138_439">
          <rect width="32" height="32" fill="white" />
        </clipPath>
      </defs>
    </symbol>

    <symbol id="fuel-pump" viewBox="0 0 32 32">
    <path d="M6 5c0-0.265 0.105-0.52 0.293-0.707s0.442-0.293 0.707-0.293h10c0.265 0 0.52 0.105 0.707 0.293s0.293 0.442 0.293 0.707v10c0 0.265-0.105 0.52-0.293 0.707s-0.442 0.293-0.707 0.293h-10c-0.265 0-0.52-0.105-0.707-0.293s-0.293-0.442-0.293-0.707v-10z"></path>
    <path d="M2 4c0-1.061 0.421-2.078 1.172-2.828s1.768-1.172 2.828-1.172h12c1.061 0 2.078 0.421 2.828 1.172s1.172 1.768 1.172 2.828v16c1.061 0 2.078 0.421 2.828 1.172s1.172 1.768 1.172 2.828v1c0 0.265 0.105 0.52 0.293 0.707s0.442 0.293 0.707 0.293 0.52-0.105 0.707-0.293c0.188-0.188 0.293-0.442 0.293-0.707v-9h-1c-0.265 0-0.52-0.105-0.707-0.293s-0.293-0.442-0.293-0.707v-6.25c0-0.265 0.105-0.52 0.293-0.707s0.442-0.293 0.707-0.293h2.99c-0.022-0.952-0.106-1.788-0.402-2.444-0.158-0.381-0.435-0.702-0.788-0.916-0.368-0.22-0.928-0.39-1.8-0.39-0.265 0-0.52-0.105-0.707-0.293s-0.293-0.442-0.293-0.707 0.105-0.52 0.293-0.707c0.188-0.188 0.442-0.293 0.707-0.293 1.128-0.003 2.069 0.221 2.824 0.672 0.766 0.456 1.268 1.102 1.588 1.814 0.59 1.31 0.588 2.93 0.588 4.162v6.35c0 0.132-0.025 0.262-0.076 0.383s-0.124 0.232-0.217 0.325c-0.093 0.093-0.203 0.167-0.325 0.217s-0.252 0.076-0.383 0.076h-1v9c0 0.796-0.316 1.559-0.879 2.121s-1.326 0.879-2.121 0.879-1.559-0.316-2.121-0.879c-0.563-0.563-0.879-1.326-0.879-2.121v-1c0-0.53-0.211-1.039-0.586-1.414s-0.884-0.586-1.414-0.586v8h1c0.265 0 0.52 0.105 0.707 0.293s0.293 0.442 0.293 0.707-0.105 0.52-0.293 0.707c-0.188 0.188-0.442 0.293-0.707 0.293h-22c-0.265 0-0.52-0.105-0.707-0.293s-0.293-0.442-0.293-0.707 0.105-0.52 0.293-0.707c0.188-0.188 0.442-0.293 0.707-0.293h1v-26zM20 4c0-0.53-0.211-1.039-0.586-1.414s-0.884-0.586-1.414-0.586h-12c-0.53 0-1.039 0.211-1.414 0.586s-0.586 0.884-0.586 1.414v26h16v-26z"></path>
    </symbol>

    <symbol id="gas" viewBox="0 0 32 32" >
    <path d="M28.1335 7.99969C28.1335 6.9225 28.0759 6.14078 27.9489 5.56219C27.8249 4.9973 27.6513 4.70513 27.4733 4.52704C27.2953 4.349 27.003 4.17552 26.4382 4.05145C25.8595 3.9244 25.0771 3.86688 23.9997 3.86688H7.99968C6.92244 3.86689 6.14077 3.92441 5.56218 4.05145C4.99711 4.17552 4.7051 4.34897 4.52702 4.52704C4.34895 4.70511 4.17551 4.99713 4.05144 5.56219C3.9244 6.14079 3.86688 6.92246 3.86687 7.99969V23.9997C3.86687 25.0771 3.92438 25.8595 4.05144 26.4382C4.17551 27.0031 4.34898 27.2953 4.52702 27.4733C4.70511 27.6513 4.99728 27.8249 5.56218 27.9489C6.14077 28.0759 6.92249 28.1335 7.99968 28.1335H23.9997C25.0771 28.1335 25.8595 28.076 26.4382 27.9489C27.0031 27.8248 27.2953 27.6514 27.4733 27.4733C27.6514 27.2953 27.8248 27.0031 27.9489 26.4382C28.076 25.8595 28.1335 25.0771 28.1335 23.9997V7.99969ZM22.8005 25.3454V25.3337C22.8005 24.671 23.3371 24.1337 23.9997 24.1335C24.6624 24.1335 25.1999 24.6709 25.1999 25.3337V25.3454C25.1999 26.0081 24.6624 26.5456 23.9997 26.5456C23.3371 26.5454 22.8005 26.008 22.8005 25.3454ZM13.3337 24.1335C13.9963 24.1337 14.5329 24.671 14.5329 25.3337C14.5327 25.9962 13.9961 26.5327 13.3337 26.5329H7.99968C7.3372 26.5327 6.80064 25.9962 6.80046 25.3337C6.80046 24.671 7.33709 24.1337 7.99968 24.1335H13.3337ZM30.5329 23.9997C30.5329 25.1289 30.476 26.1177 30.2926 26.9528C30.1063 27.8014 29.7741 28.5671 29.1706 29.1706C28.567 29.7741 27.8014 30.1063 26.9528 30.2927C26.1177 30.476 25.1289 30.5329 23.9997 30.5329H7.99968C6.87061 30.5329 5.88253 30.476 5.04753 30.2927C4.19893 30.1063 3.43333 29.7741 2.82976 29.1706C2.22624 28.5671 1.89404 27.8014 1.70769 26.9528C1.52433 26.1177 1.46648 25.1289 1.46648 23.9997V7.99969C1.46649 6.87059 1.52434 5.88256 1.70769 5.04755C1.89403 4.19887 2.22616 3.43337 2.82976 2.82977C3.43335 2.22618 4.19885 1.89405 5.04753 1.7077C5.88254 1.52436 6.87057 1.4665 7.99968 1.46649H23.9997C25.1289 1.46649 26.1177 1.52434 26.9528 1.7077C27.8014 1.89406 28.5671 2.22625 29.1706 2.82977C29.7741 3.43334 30.1063 4.19894 30.2926 5.04755C30.476 5.88254 30.5329 6.87062 30.5329 7.99969V23.9997Z" fill="#101828" />
    <path d="M20.1335 13.333C20.1333 11.0504 18.2823 9.2002 15.9997 9.2002C13.7172 9.20037 11.867 11.0505 11.8669 13.333C11.8669 15.6157 13.7171 17.4666 15.9997 17.4668C18.2825 17.4668 20.1335 15.6158 20.1335 13.333ZM22.5329 13.333C22.5329 16.9413 19.6079 19.8662 15.9997 19.8662C12.3916 19.866 9.46648 16.9412 9.46648 13.333C9.46665 9.72501 12.3917 6.79998 15.9997 6.7998C19.6078 6.7998 22.5327 9.7249 22.5329 13.333Z" fill="#101828" />
    <path d="M14.8001 19.9997V17.9997C14.8003 17.3371 15.3377 16.8005 16.0003 16.8005C16.6628 16.8007 17.1994 17.3372 17.1995 17.9997V19.9997C17.1995 20.6623 16.6629 21.1997 16.0003 21.1999C15.3376 21.1999 14.8001 20.6624 14.8001 19.9997ZM11.3333 12.1335C11.9961 12.1335 12.5335 12.6709 12.5335 13.3337C12.5333 13.9963 11.996 14.5329 11.3333 14.5329H9.33333C8.6707 14.5329 8.13331 13.9963 8.13313 13.3337C8.13313 12.6709 8.67059 12.1335 9.33333 12.1335H11.3333ZM22.6663 12.1335C23.3291 12.1335 23.8665 12.6709 23.8665 13.3337C23.8664 13.9963 23.329 14.5329 22.6663 14.5329H20.6663C20.0039 14.5327 19.4673 13.9962 19.4671 13.3337C19.4671 12.671 20.0037 12.1337 20.6663 12.1335H22.6663ZM14.8001 8.66669V6.66669C14.8001 6.00395 15.3376 5.46649 16.0003 5.46649C16.6629 5.46667 17.1995 6.00405 17.1995 6.66669V8.66669C17.1995 9.32932 16.6629 9.86671 16.0003 9.86688C15.3376 9.86688 14.8001 9.32943 14.8001 8.66669Z" fill="#101828" />
    </symbol>

    <symbol id="ion_water" viewBox="0 0 32 32">
    <path d="M24 20.0002C24 17.3341 22.5224 14.0569 20.6748 11.0471C18.965 8.26163 17.0349 5.85885 16 4.633C14.9649 5.85884 13.035 8.26177 11.3252 11.0471C9.47754 14.0569 8 17.3341 8 20.0002C8.00004 22.5489 8.79782 24.5265 10.1357 25.8644C11.4737 27.2023 13.4512 28.0002 16 28.0002C18.5488 28.0002 20.5263 27.2023 21.8643 25.8644C23.2022 24.5265 24 22.5489 24 20.0002ZM26 20.0002C26 22.9744 25.0595 25.4973 23.2783 27.2785C21.4971 29.0597 18.9742 30.0002 16 30.0002C13.0258 30.0002 10.5029 29.0597 8.72168 27.2785C6.94045 25.4973 6.00004 22.9744 6 20.0002C6 16.7394 7.74818 13.0522 9.62109 10.0012C11.5201 6.90764 13.6653 4.28371 14.6709 3.1076V3.10663L14.8018 2.97089C14.9392 2.84166 15.0965 2.73467 15.2686 2.65546L15.4443 2.58612C15.6231 2.52623 15.8107 2.49533 16 2.4953C16.1895 2.4953 16.3777 2.52613 16.5566 2.58612L16.7324 2.65546L16.8994 2.74335C17.0074 2.80797 17.1076 2.88468 17.1992 2.97089L17.3291 3.10663L17.3301 3.1076C18.3352 4.28363 20.48 6.90765 22.3789 10.0012C24.2517 13.0522 26 16.7394 26 20.0002Z" fill="#101828" />
    <path d="M20.5 20.5C20.5 19.9477 20.9477 19.5 21.5 19.5C22.0523 19.5 22.5 19.9477 22.5 20.5C22.5 21.9587 21.9201 23.3572 20.8887 24.3887C19.8572 25.4201 18.4587 26 17 26C16.4477 26 16 25.5523 16 25C16 24.4477 16.4477 24 17 24C17.9283 24 18.8182 23.631 19.4746 22.9746C20.131 22.3182 20.5 21.4283 20.5 20.5Z" fill="#101828" />
    </symbol>

    <symbol id="microwave" viewBox="0 0 32 32">
    <path d="M28.3337 8.00031C28.3337 7.07983 27.5871 6.33331 26.6667 6.33331H5.33366C4.41318 6.33331 3.66666 7.07983 3.66666 8.00031V22.6663C3.66666 23.5868 4.41318 24.3333 5.33366 24.3333H26.6667C27.5871 24.3333 28.3337 23.5868 28.3337 22.6663V8.00031ZM30.3337 22.6663C30.3337 24.6914 28.6917 26.3333 26.6667 26.3333H5.33366C3.30861 26.3333 1.66666 24.6914 1.66666 22.6663V8.00031C1.66666 5.97526 3.30861 4.33331 5.33366 4.33331H26.6667C28.6917 4.33331 30.3337 5.97526 30.3337 8.00031V22.6663Z" fill="#101828" />
    <path d="M17.667 11.9996C17.6668 11.8157 17.517 11.6666 17.333 11.6666H9.33301C9.14917 11.6668 9.00018 11.8158 9 11.9996V18.6666C9 18.8506 9.14906 18.9995 9.33301 18.9996H17.333C17.5171 18.9996 17.667 18.8507 17.667 18.6666V11.9996ZM19.667 18.6666C19.667 19.9553 18.6217 20.9996 17.333 20.9996H9.33301C8.04449 20.9995 7 19.9552 7 18.6666V11.9996C7.00018 10.7112 8.0446 9.6668 9.33301 9.66663H17.333C18.6216 9.66663 19.6668 10.7111 19.667 11.9996V18.6666Z" fill="#101828" />
    <path d="M7 27.9996V25.3336C7 24.7813 7.44772 24.3336 8 24.3336C8.55228 24.3336 9 24.7813 9 25.3336V27.9996C9 28.5519 8.55228 28.9996 8 28.9996C7.44772 28.9996 7 28.5519 7 27.9996ZM23 27.9996V25.3336C23 24.7813 23.4477 24.3336 24 24.3336C24.5523 24.3336 25 24.7813 25 25.3336V27.9996C25 28.5519 24.5523 28.9996 24 28.9996C23.4477 28.9996 23 28.5519 23 27.9996ZM23 19.9996V10.6666C23 10.1143 23.4477 9.66663 24 9.66663C24.5523 9.66663 25 10.1143 25 10.6666V19.9996C25 20.5519 24.5523 20.9996 24 20.9996C23.4477 20.9996 23 20.5519 23 19.9996Z" fill="#101828" />
    </symbol>

    <symbol id="ui-radios" viewBox="0 0 32 32">
    <path d="M14 5c0-0.265 0.105-0.52 0.293-0.707s0.442-0.293 0.707-0.293h14c0.265 0 0.52 0.105 0.707 0.293s0.293 0.442 0.293 0.707v2c0 0.265-0.105 0.52-0.293 0.707s-0.442 0.293-0.707 0.293h-14c-0.265 0-0.52-0.105-0.707-0.293s-0.293-0.442-0.293-0.707v-2zM0 24c0-1.591 0.632-3.117 1.757-4.243s2.651-1.757 4.243-1.757 3.117 0.632 4.243 1.757c1.125 1.125 1.757 2.651 1.757 4.243s-0.632 3.117-1.757 4.243c-1.125 1.125-2.651 1.757-4.243 1.757s-3.117-0.632-4.243-1.757c-1.125-1.125-1.757-2.651-1.757-4.243zM14 21c0-0.265 0.105-0.52 0.293-0.707s0.442-0.293 0.707-0.293h14c0.265 0 0.52 0.105 0.707 0.293s0.293 0.442 0.293 0.707v2c0 0.265-0.105 0.52-0.293 0.707s-0.442 0.293-0.707 0.293h-14c-0.265 0-0.52-0.105-0.707-0.293s-0.293-0.442-0.293-0.707v-2zM14 11c0-0.265 0.105-0.52 0.293-0.707s0.442-0.293 0.707-0.293h10c0.265 0 0.52 0.105 0.707 0.293s0.293 0.442 0.293 0.707-0.105 0.52-0.293 0.707c-0.188 0.188-0.442 0.293-0.707 0.293h-10c-0.265 0-0.52-0.105-0.707-0.293s-0.293-0.442-0.293-0.707zM14 27c0-0.265 0.105-0.52 0.293-0.707s0.442-0.293 0.707-0.293h10c0.265 0 0.52 0.105 0.707 0.293s0.293 0.442 0.293 0.707-0.105 0.52-0.293 0.707c-0.188 0.188-0.442 0.293-0.707 0.293h-10c-0.265 0-0.52-0.105-0.707-0.293s-0.293-0.442-0.293-0.707zM6 2c-0.788 0-1.568 0.155-2.296 0.457s-1.389 0.744-1.947 1.301c-0.557 0.557-0.999 1.219-1.301 1.947s-0.457 1.508-0.457 2.296c0 0.788 0.155 1.568 0.457 2.296s0.744 1.389 1.301 1.947c0.557 0.557 1.219 0.999 1.947 1.301s1.508 0.457 2.296 0.457c1.591 0 3.117-0.632 4.243-1.757s1.757-2.651 1.757-4.243c0-1.591-0.632-3.117-1.757-4.243s-2.651-1.757-4.243-1.757zM6 11c-0.796 0-1.559-0.316-2.121-0.879s-0.879-1.326-0.879-2.121c0-0.796 0.316-1.559 0.879-2.121s1.326-0.879 2.121-0.879c0.796 0 1.559 0.316 2.121 0.879s0.879 1.326 0.879 2.121c0 0.796-0.316 1.559-0.879 2.121s-1.326 0.879-2.121 0.879z"></path>
    </symbol>

    <symbol id="solar_fridge" viewBox="0 0 32 32">
    <path d="M23.667 9.333c0-0.265-0.105-0.52-0.293-0.707s-0.442-0.293-0.707-0.293c-0.265 0-0.52 0.105-0.707 0.293s-0.293 0.442-0.293 0.707v2.667c0 0.265 0.105 0.52 0.293 0.707s0.442 0.293 0.707 0.293c0.265 0 0.52-0.105 0.707-0.293s0.293-0.442 0.293-0.707v-2.667zM23.667 18.667c0-0.265-0.105-0.52-0.293-0.707s-0.442-0.293-0.707-0.293c-0.265 0-0.52 0.105-0.707 0.293s-0.293 0.442-0.293 0.707v2.667c0 0.265 0.105 0.52 0.293 0.707s0.442 0.293 0.707 0.293c0.265 0 0.52-0.105 0.707-0.293s0.293-0.442 0.293-0.707v-2.667z"></path>
    <path d="M16.075 1.667h-0.149c-2.451 0-4.392 0-5.911 0.204-1.563 0.211-2.828 0.653-3.827 1.651-0.997 0.999-1.44 2.264-1.651 3.827-0.204 1.52-0.204 3.46-0.204 5.911v4.149c0 2.451 0 4.392 0.204 5.911 0.211 1.563 0.653 2.828 1.651 3.827 0.613 0.612 1.325 1.015 2.145 1.284v0.904c0 0.552 0.448 1 1 1h1.333c0.265 0 0.52-0.105 0.707-0.293s0.293-0.442 0.293-0.707v-0.395c1.209 0.061 2.62 0.061 4.259 0.061h0.149c1.64 0 3.049 0 4.259-0.061v0.395c0 0.552 0.448 1 1 1h1.333c0.265 0 0.52-0.105 0.707-0.293s0.293-0.442 0.293-0.707v-0.904c0.82-0.269 1.533-0.672 2.145-1.284 0.997-0.999 1.44-2.264 1.651-3.827 0.204-1.52 0.204-3.46 0.204-5.911v-4.148c0-2.451 0-4.392-0.204-5.911-0.211-1.563-0.653-2.828-1.651-3.827-0.999-0.997-2.264-1.44-3.827-1.651-1.52-0.204-3.46-0.204-5.911-0.204zM7.603 4.936c0.564-0.564 1.337-0.903 2.679-1.083 1.371-0.184 3.176-0.187 5.719-0.187s4.349 0.003 5.72 0.187c1.34 0.18 2.113 0.519 2.677 1.083s0.903 1.337 1.083 2.679c0.184 1.371 0.187 3.176 0.187 5.719v1h-19.333v-1c0-2.543 0.003-4.348 0.187-5.72 0.18-1.34 0.519-2.113 1.083-2.677zM6.333 16.333h19.333v1c0 2.543-0.003 4.349-0.187 5.72-0.18 1.34-0.519 2.113-1.083 2.677s-1.337 0.903-2.679 1.083c-1.371 0.184-3.176 0.187-5.719 0.187s-4.348-0.003-5.72-0.187c-1.34-0.18-2.113-0.519-2.677-1.083s-0.903-1.337-1.083-2.679c-0.184-1.369-0.187-3.176-0.187-5.719v-1z"></path>
    </symbol>

    <symbol id="bathroom" viewBox="0 0 32 32" fill="none">
    <path d="M8 29.5C8 29.7967 7.91203 30.0867 7.7472 30.3334C7.58238 30.58 7.34811 30.7723 7.07403 30.8858C6.79994 30.9993 6.49834 31.0291 6.20737 30.9712C5.91639 30.9133 5.64912 30.7704 5.43934 30.5607C5.22956 30.3509 5.0867 30.0836 5.02882 29.7926C4.97094 29.5017 5.00065 29.2001 5.11418 28.926C5.22771 28.6519 5.41997 28.4176 5.66665 28.2528C5.91332 28.088 6.20333 28 6.5 28C6.89783 28 7.27936 28.158 7.56066 28.4393C7.84197 28.7206 8 29.1022 8 29.5ZM10.5 24C10.2033 24 9.91332 24.088 9.66665 24.2528C9.41997 24.4176 9.22771 24.6519 9.11418 24.926C9.00065 25.2001 8.97094 25.5017 9.02882 25.7926C9.0867 26.0836 9.22956 26.3509 9.43934 26.5607C9.64912 26.7704 9.91639 26.9133 10.2074 26.9712C10.4983 27.0291 10.7999 26.9993 11.074 26.8858C11.3481 26.7723 11.5824 26.58 11.7472 26.3334C11.912 26.0867 12 25.7967 12 25.5C12 25.1022 11.842 24.7206 11.5607 24.4393C11.2794 24.158 10.8978 24 10.5 24ZM2.5 24C2.20333 24 1.91332 24.088 1.66665 24.2528C1.41997 24.4176 1.22771 24.6519 1.11418 24.926C1.00065 25.2001 0.970945 25.5017 1.02882 25.7926C1.0867 26.0836 1.22956 26.3509 1.43934 26.5607C1.64912 26.7704 1.91639 26.9133 2.20737 26.9712C2.49834 27.0291 2.79994 26.9993 3.07403 26.8858C3.34811 26.7723 3.58238 26.58 3.74721 26.3334C3.91203 26.0867 4 25.7967 4 25.5C4 25.1022 3.84197 24.7206 3.56066 24.4393C3.27936 24.158 2.89783 24 2.5 24ZM6.5 20C6.20333 20 5.91332 20.088 5.66665 20.2528C5.41997 20.4176 5.22771 20.6519 5.11418 20.926C5.00065 21.2001 4.97094 21.5017 5.02882 21.7926C5.0867 22.0836 5.22956 22.3509 5.43934 22.5607C5.64912 22.7704 5.91639 22.9133 6.20737 22.9712C6.49834 23.0291 6.79994 22.9993 7.07403 22.8858C7.34811 22.7723 7.58238 22.58 7.7472 22.3334C7.91203 22.0867 8 21.7967 8 21.5C8 21.1022 7.84197 20.7206 7.56066 20.4393C7.27936 20.158 6.89783 20 6.5 20ZM32 5C32 5.26522 31.8946 5.51957 31.7071 5.70711C31.5196 5.89464 31.2652 6 31 6H27.4137L23.9325 9.4825L21.225 25.3312C21.1641 25.6933 21.0046 26.0317 20.7642 26.3091C20.5237 26.5866 20.2115 26.7925 19.8617 26.9043C19.512 27.0161 19.1382 27.0295 18.7814 26.943C18.4245 26.8564 18.0984 26.6733 17.8388 26.4137L5.58875 14.1637C5.32875 13.9039 5.14541 13.5774 5.05887 13.2201C4.97233 12.8628 4.98593 12.4886 5.09817 12.1385C5.21042 11.7885 5.41698 11.4761 5.69515 11.2358C5.97333 10.9955 6.31236 10.8365 6.675 10.7763L22.5175 8.0675L26.2925 4.2925C26.3854 4.19967 26.4958 4.12605 26.6171 4.07586C26.7385 4.02568 26.8686 3.9999 27 4H31C31.2652 4 31.5196 4.10536 31.7071 4.29289C31.8946 4.48043 32 4.73478 32 5ZM21.7763 10.2238L7 12.75L19.25 25L21.7763 10.2238Z" fill="#101828" />
    </symbol>

    <symbol id="van" viewBox="0 0 32 32" fill="none">
      <g clip-path="url(#clip0_12138_451)">
        <path d="M12 2H2V30H12V2ZM30 2H20V12H30V2ZM30 20V30H20V20H30ZM0 2C0 1.46957 0.210714 0.960859 0.585786 0.585786C0.960859 0.210714 1.46957 0 2 0L12 0C12.5304 0 13.0391 0.210714 13.4142 0.585786C13.7893 0.960859 14 1.46957 14 2V30C14 30.5304 13.7893 31.0391 13.4142 31.4142C13.0391 31.7893 12.5304 32 12 32H2C1.46957 32 0.960859 31.7893 0.585786 31.4142C0.210714 31.0391 0 30.5304 0 30V2ZM18 2C18 1.46957 18.2107 0.960859 18.5858 0.585786C18.9609 0.210714 19.4696 0 20 0L30 0C30.5304 0 31.0391 0.210714 31.4142 0.585786C31.7893 0.960859 32 1.46957 32 2V12C32 12.5304 31.7893 13.0391 31.4142 13.4142C31.0391 13.7893 30.5304 14 30 14H20C19.4696 14 18.9609 13.7893 18.5858 13.4142C18.2107 13.0391 18 12.5304 18 12V2ZM20 18C19.4696 18 18.9609 18.2107 18.5858 18.5858C18.2107 18.9609 18 19.4696 18 20V30C18 30.5304 18.2107 31.0391 18.5858 31.4142C18.9609 31.7893 19.4696 32 20 32H30C30.5304 32 31.0391 31.7893 31.4142 31.4142C31.7893 31.0391 32 30.5304 32 30V20C32 19.4696 31.7893 18.9609 31.4142 18.5858C31.0391 18.2107 30.5304 18 30 18H20Z" fill="#101828" />
      </g>
      <defs>
        <clipPath id="clip0_12138_451">
          <rect width="32" height="32" fill="white" />
        </clipPath>
      </defs>
    </symbol>

    <symbol id="full_integrated" viewBox="0 0 32 32" fill="none">
    <path d="M2 5C2 4.20435 2.31607 3.44129 2.87868 2.87868C3.44129 2.31607 4.20435 2 5 2H11C11.7956 2 12.5587 2.31607 13.1213 2.87868C13.6839 3.44129 14 4.20435 14 5V11C14 11.7956 13.6839 12.5587 13.1213 13.1213C12.5587 13.6839 11.7956 14 11 14H5C4.20435 14 3.44129 13.6839 2.87868 13.1213C2.31607 12.5587 2 11.7956 2 11V5ZM5 4C4.73478 4 4.48043 4.10536 4.29289 4.29289C4.10536 4.48043 4 4.73478 4 5V11C4 11.2652 4.10536 11.5196 4.29289 11.7071C4.48043 11.8946 4.73478 12 5 12H11C11.2652 12 11.5196 11.8946 11.7071 11.7071C11.8946 11.5196 12 11.2652 12 11V5C12 4.73478 11.8946 4.48043 11.7071 4.29289C11.5196 4.10536 11.2652 4 11 4H5ZM18 5C18 4.20435 18.3161 3.44129 18.8787 2.87868C19.4413 2.31607 20.2044 2 21 2H27C27.7956 2 28.5587 2.31607 29.1213 2.87868C29.6839 3.44129 30 4.20435 30 5V11C30 11.7956 29.6839 12.5587 29.1213 13.1213C28.5587 13.6839 27.7956 14 27 14H21C20.2044 14 19.4413 13.6839 18.8787 13.1213C18.3161 12.5587 18 11.7956 18 11V5ZM21 4C20.7348 4 20.4804 4.10536 20.2929 4.29289C20.1054 4.48043 20 4.73478 20 5V11C20 11.2652 20.1054 11.5196 20.2929 11.7071C20.4804 11.8946 20.7348 12 21 12H27C27.2652 12 27.5196 11.8946 27.7071 11.7071C27.8946 11.5196 28 11.2652 28 11V5C28 4.73478 27.8946 4.48043 27.7071 4.29289C27.5196 4.10536 27.2652 4 27 4H21ZM2 21C2 20.2044 2.31607 19.4413 2.87868 18.8787C3.44129 18.3161 4.20435 18 5 18H11C11.7956 18 12.5587 18.3161 13.1213 18.8787C13.6839 19.4413 14 20.2044 14 21V27C14 27.7956 13.6839 28.5587 13.1213 29.1213C12.5587 29.6839 11.7956 30 11 30H5C4.20435 30 3.44129 29.6839 2.87868 29.1213C2.31607 28.5587 2 27.7956 2 27V21ZM5 20C4.73478 20 4.48043 20.1054 4.29289 20.2929C4.10536 20.4804 4 20.7348 4 21V27C4 27.2652 4.10536 27.5196 4.29289 27.7071C4.48043 27.8946 4.73478 28 5 28H11C11.2652 28 11.5196 27.8946 11.7071 27.7071C11.8946 27.5196 12 27.2652 12 27V21C12 20.7348 11.8946 20.4804 11.7071 20.2929C11.5196 20.1054 11.2652 20 11 20H5ZM18 21C18 20.2044 18.3161 19.4413 18.8787 18.8787C19.4413 18.3161 20.2044 18 21 18H27C27.7956 18 28.5587 18.3161 29.1213 18.8787C29.6839 19.4413 30 20.2044 30 21V27C30 27.7956 29.6839 28.5587 29.1213 29.1213C28.5587 29.6839 27.7956 30 27 30H21C20.2044 30 19.4413 29.6839 18.8787 29.1213C18.3161 28.5587 18 27.7956 18 27V21ZM21 20C20.7348 20 20.4804 20.1054 20.2929 20.2929C20.1054 20.4804 20 20.7348 20 21V27C20 27.2652 20.1054 27.5196 20.2929 27.7071C20.4804 27.8946 20.7348 28 21 28H27C27.2652 28 27.5196 27.8946 27.7071 27.7071C27.8946 27.5196 28 27.2652 28 27V21C28 20.7348 27.8946 20.4804 27.7071 20.2929C27.5196 20.1054 27.2652 20 27 20H21Z" fill="#101828" />
    </symbol>

    <symbol id="alcove" viewBox="0 0 32 32" fill="none">
    <path d="M8 4V8H4V4H8ZM10 28V24C10 23.4696 9.78929 22.9609 9.41421 22.5858C9.03914 22.2107 8.53043 22 8 22H4C3.46957 22 2.96086 22.2107 2.58579 22.5858C2.21071 22.9609 2 23.4696 2 24V28C2 28.5304 2.21071 29.0391 2.58579 29.4142C2.96086 29.7893 3.46957 30 4 30H8C8.53043 30 9.03914 29.7893 9.41421 29.4142C9.78929 29.0391 10 28.5304 10 28ZM10 18V14C10 13.4696 9.78929 12.9609 9.41421 12.5858C9.03914 12.2107 8.53043 12 8 12H4C3.46957 12 2.96086 12.2107 2.58579 12.5858C2.21071 12.9609 2 13.4696 2 14V18C2 18.5304 2.21071 19.0391 2.58579 19.4142C2.96086 19.7893 3.46957 20 4 20H8C8.53043 20 9.03914 19.7893 9.41421 19.4142C9.78929 19.0391 10 18.5304 10 18ZM10 8V4C10 3.46957 9.78929 2.96086 9.41421 2.58579C9.03914 2.21071 8.53043 2 8 2H4C3.46957 2 2.96086 2.21071 2.58579 2.58579C2.21071 2.96086 2 3.46957 2 4V8C2 8.53043 2.21071 9.03914 2.58579 9.41421C2.96086 9.78929 3.46957 10 4 10H8C8.53043 10 9.03914 9.78929 9.41421 9.41421C9.78929 9.03914 10 8.53043 10 8ZM20 28V24C20 23.4696 19.7893 22.9609 19.4142 22.5858C19.0391 22.2107 18.5304 22 18 22H14C13.4696 22 12.9609 22.2107 12.5858 22.5858C12.2107 22.9609 12 23.4696 12 24V28C12 28.5304 12.2107 29.0391 12.5858 29.4142C12.9609 29.7893 13.4696 30 14 30H18C18.5304 30 19.0391 29.7893 19.4142 29.4142C19.7893 29.0391 20 28.5304 20 28ZM20 18V14C20 13.4696 19.7893 12.9609 19.4142 12.5858C19.0391 12.2107 18.5304 12 18 12H14C13.4696 12 12.9609 12.2107 12.5858 12.5858C12.2107 12.9609 12 13.4696 12 14V18C12 18.5304 12.2107 19.0391 12.5858 19.4142C12.9609 19.7893 13.4696 20 14 20H18C18.5304 20 19.0391 19.7893 19.4142 19.4142C19.7893 19.0391 20 18.5304 20 18ZM20 8V4C20 3.46957 19.7893 2.96086 19.4142 2.58579C19.0391 2.21071 18.5304 2 18 2H14C13.4696 2 12.9609 2.21071 12.5858 2.58579C12.2107 2.96086 12 3.46957 12 4V8C12 8.53043 12.2107 9.03914 12.5858 9.41421C12.9609 9.78929 13.4696 10 14 10H18C18.5304 10 19.0391 9.78929 19.4142 9.41421C19.7893 9.03914 20 8.53043 20 8ZM18 4V8H14V4H18ZM28 4V8H24V4H28ZM8 14V18H4V14H8ZM18 14V18H14V14H18ZM28 14H24V18H28V14ZM8 24V28H4V24H8ZM18 24V28H14V24H18ZM28 24V28H24V24H28ZM24 2C23.4696 2 22.9609 2.21071 22.5858 2.58579C22.2107 2.96086 22 3.46957 22 4V8C22 8.53043 22.2107 9.03914 22.5858 9.41421C22.9609 9.78929 23.4696 10 24 10H28C28.5304 10 29.0391 9.78929 29.4142 9.41421C29.7893 9.03914 30 8.53043 30 8V4C30 3.46957 29.7893 2.96086 29.4142 2.58579C29.0391 2.21071 28.5304 2 28 2H24ZM22 14C22 13.4696 22.2107 12.9609 22.5858 12.5858C22.9609 12.2107 23.4696 12 24 12H28C28.5304 12 29.0391 12.2107 29.4142 12.5858C29.7893 12.9609 30 13.4696 30 14V18C30 18.5304 29.7893 19.0391 29.4142 19.4142C29.0391 19.7893 28.5304 20 28 20H24C23.4696 20 22.9609 19.7893 22.5858 19.4142C22.2107 19.0391 22 18.5304 22 18V14ZM24 22C23.4696 22 22.9609 22.2107 22.5858 22.5858C22.2107 22.9609 22 23.4696 22 24V28C22 28.5304 22.2107 29.0391 22.5858 29.4142C22.9609 29.7893 23.4696 30 24 30H28C28.5304 30 29.0391 29.7893 29.4142 29.4142C29.7893 29.0391 30 28.5304 30 28V24C30 23.4696 29.7893 22.9609 29.4142 22.5858C29.0391 22.2107 28.5304 22 28 22H24Z" fill="#101828" />
    </symbol>

</defs>
</svg>
